HIERARCHY
ROOT root
{
	OFFSET	0.000000	0.000000	0.000000
	CHANNELS 6 Xposition Yposition Zposition Zrotation Yrotation Xrotation
	JOINT lhipjoint
	{
		OFFSET	0.000000	0.000000	0.000000
		CHANNELS 3 Zrotation Yrotation Xrotation
		JOINT lfemur
		{
			OFFSET	1.656736	-1.802822	0.624766
			CHANNELS 3 Zrotation Yrotation Xrotation
			JOINT ltibia
			{
				OFFSET	2.597200	-7.135754	0.000000
				CHANNELS 3 Zrotation Yrotation Xrotation
				JOINT lfoot
				{
					OFFSET	2.492357	-6.847701	0.000000
					CHANNELS 3 Zrotation Yrotation Xrotation
					JOINT ltoes
					{
						OFFSET	0.197038	-0.541357	2.145811
						CHANNELS 3 Zrotation Yrotation Xrotation
						End Site
						{
							OFFSET	0.000000	-0.000000	1.112490
						}
					}
				}
			}
		}
	}
	JOINT rhipjoint
	{
		OFFSET	0.000000	0.000000	0.000000
		CHANNELS 3 Zrotation Yrotation Xrotation
		JOINT rfemur
		{
			OFFSET	-1.610701	-1.802823	0.624765
			CHANNELS 3 Zrotation Yrotation Xrotation
			JOINT rtibia
			{
				OFFSET	-2.595021	-7.129768	0.000000
				CHANNELS 3 Zrotation Yrotation Xrotation
				JOINT rfoot
				{
					OFFSET	-2.467804	-6.780241	0.000000
					CHANNELS 3 Zrotation Yrotation Xrotation
					JOINT rtoes
					{
						OFFSET	-0.230239	-0.632577	2.133676
						CHANNELS 3 Zrotation Yrotation Xrotation
						End Site
						{
							OFFSET	-0.000000	-0.000000	1.115690
						}
					}
				}
			}
		}
	}
	JOINT lowerback
	{
		OFFSET	0.000000	0.000000	0.000000
		CHANNELS 3 Zrotation Yrotation Xrotation
		JOINT upperback
		{
			OFFSET	0.019612	2.054496	-0.141116
			CHANNELS 3 Zrotation Yrotation Xrotation
			JOINT thorax
			{
				OFFSET	0.010210	2.064356	-0.059210
				CHANNELS 3 Zrotation Yrotation Xrotation
				JOINT lowerneck
				{
					OFFSET	0.001509	2.068054	0.008037
					CHANNELS 3 Zrotation Yrotation Xrotation
					JOINT upperneck
					{
						OFFSET	0.007130	1.567112	0.149683
						CHANNELS 3 Zrotation Yrotation Xrotation
						JOINT head
						{
							OFFSET	0.034286	1.560409	-0.100058
							CHANNELS 3 Zrotation Yrotation Xrotation
							End Site
							{
								OFFSET	0.013051	1.625595	-0.052648
							}
						}
					}
				}
				JOINT lclavicle
				{
					OFFSET	0.001509	2.068054	0.008037
					CHANNELS 3 Zrotation Yrotation Xrotation
					JOINT lhumerus
					{
						OFFSET	3.542050	0.904362	-0.173638
						CHANNELS 3 Zrotation Yrotation Xrotation
						JOINT lradius
						{
							OFFSET	4.865130	-0.000000	-0.000000
							CHANNELS 3 Zrotation Yrotation Xrotation
							JOINT lwrist
							{
								OFFSET	3.355540	-0.000000	0.000000
								CHANNELS 3 Zrotation Yrotation Xrotation
								JOINT lhand
								{
									OFFSET	1.677770	-0.000000	0.000000
									CHANNELS 3 Zrotation Yrotation Xrotation
									JOINT lfingers
									{
										OFFSET	0.661175	-0.000000	0.000000
										CHANNELS 3 Zrotation Yrotation Xrotation
										End Site
										{
											OFFSET	0.533057	-0.000000	0.000000
										}
									}
								}
								JOINT lthumb
								{
									OFFSET	1.677770	-0.000000	0.000000
									CHANNELS 3 Zrotation Yrotation Xrotation
									End Site
									{
										OFFSET	0.541196	-0.000000	0.541196
									}
								}
							}
						}
					}
				}
				JOINT rclavicle
				{
					OFFSET	0.001509	2.068054	0.008037
					CHANNELS 3 Zrotation Yrotation Xrotation
					JOINT rhumerus
					{
						OFFSET	-3.498016	0.759940	-0.326156
						CHANNELS 3 Zrotation Yrotation Xrotation
						JOINT rradius
						{
							OFFSET	-5.026490	-0.000000	0.000000
							CHANNELS 3 Zrotation Yrotation Xrotation
							JOINT rwrist
							{
								OFFSET	-3.364310	-0.000000	0.000000
								CHANNELS 3 Zrotation Yrotation Xrotation
								JOINT rhand
								{
									OFFSET	-1.682160	-0.000000	0.000000
									CHANNELS 3 Zrotation Yrotation Xrotation
									JOINT rfingers
									{
										OFFSET	-0.730406	-0.000000	0.000000
										CHANNELS 3 Zrotation Yrotation Xrotation
										End Site
										{
											OFFSET	-0.588872	-0.000000	0.000000
										}
									}
								}
								JOINT rthumb
								{
									OFFSET	-1.682160	-0.000000	0.000000
									CHANNELS 3 Zrotation Yrotation Xrotation
									End Site
									{
										OFFSET	-0.597863	-0.000000	0.597863
									}
								}
							}
						}
					}
				}
			}
		}
	}
}
MOTION
Frames:	5
Frame Time:	0.008333
	9.445540	17.861000	-0.500023	-0.919335	-4.115640	-3.465030	0.000000	0.000000	0.000000	-22.247145	-3.344540	0.230840	1.245212	7.075354	19.938805	0.457429	9.399137	-19.469971	0.000452	-0.137232	-0.377042	0.000000	0.000000	0.000000	24.294289	7.105661	1.949447	-0.792095	-5.681153	15.862037	-0.403547	-4.390361	-14.423196	-0.044760	-1.365403	3.754811	1.602890	-1.176640	5.105331	0.880915	-1.499640	3.021500	0.077263	-0.738674	0.226219	-3.954690	-5.343500	-12.727899	3.203860	-6.717460	3.340840	1.282970	-3.245430	3.639940	-3.954690	0.000000	-0.000000	-90.543777	3.592984	29.010344	21.219025	-32.083118	-6.165863	0.000000	-0.000002	-25.237698	30.775572	18.638891	10.776589	-7.125019	0.000000	0.000000	2.667490	51.394482	0.420391	-3.954690	0.000000	-0.000000	86.759201	-2.670969	31.796713	-22.658239	33.712959	-6.947675	0.000000	-0.000002	-16.129692	-28.019474	14.919749	-7.801487	7.125019	0.000000	0.000000	-0.302534	-13.184675	-0.225552
	9.446880	17.853800	-0.518179	-0.927599	-4.165020	-3.288640	0.000000	0.000000	0.000000	-22.233311	-3.325042	0.085795	1.215143	6.992530	19.693243	0.412431	9.597564	-19.181213	0.001899	-0.281369	-0.773085	0.000000	0.000000	0.000000	24.303528	7.467885	1.462963	-0.857451	-5.905164	16.509506	-0.443251	-4.309951	-14.901056	-0.048256	-1.417675	3.898835	1.578500	-1.100400	5.312739	0.910084	-1.394190	3.029610	0.119873	-0.686996	0.121616	-4.138490	-5.047921	-12.373199	3.503130	-6.317920	2.814830	1.458160	-3.042000	3.392530	-4.138491	0.000000	0.000000	-90.470238	3.290171	30.011961	22.138489	-33.133179	-6.661383	0.000000	0.000000	-25.358202	30.298836	18.272678	10.381988	-7.125019	0.000000	0.000000	2.230171	50.894611	0.324042	-4.138491	0.000000	0.000000	86.625183	-2.566219	32.597569	-23.436811	34.563023	-7.384617	0.000000	-0.000002	-16.369299	-28.289120	14.697548	-7.775657	7.125019	0.000000	0.000000	-0.505303	-13.392702	-0.374543
	9.451550	17.842300	-0.525960	-0.660947	-4.100380	-3.165360	0.000000	0.000000	0.000000	-22.565235	-3.331229	0.202932	1.150683	6.811065	19.156824	0.355411	9.829420	-18.787434	0.003570	-0.385807	-1.060070	0.000000	0.000000	0.000000	23.958384	7.603278	0.990920	-0.923782	-6.123294	17.142572	-0.482081	-4.133603	-15.283988	-0.055764	-1.523807	4.191352	1.354150	-1.074180	5.300641	0.791388	-1.372660	3.202600	0.120320	-0.676718	0.308473	-4.068820	-4.859930	-12.611899	3.544261	-6.069781	2.732090	1.474230	-2.914180	3.398130	-4.068820	-0.000000	0.000000	-90.281593	2.904387	30.916586	23.138699	-34.240131	-7.216185	-0.000000	0.000002	-25.763588	29.556793	17.099800	9.466584	-7.125019	0.000000	0.000000	1.644441	49.449322	0.180457	-4.068820	-0.000000	0.000000	86.716209	-2.079522	33.317856	-24.058022	35.225552	-7.739998	0.000000	0.000000	-16.652996	-28.561840	15.379955	-8.215200	7.125019	0.000000	0.000000	-0.619754	-12.590776	-0.469785
	9.456990	17.844500	-0.526701	-0.055256	-3.924400	-3.188220	0.000000	0.000000	0.000000	-23.270014	-3.460749	0.463291	1.096618	6.654477	18.695679	0.336913	9.913654	-18.667248	0.000715	-0.172586	-0.474184	0.000000	0.000000	0.000000	23.229589	7.562305	0.676803	-0.988089	-6.326807	17.735634	-0.523294	-3.908261	-15.653206	-0.066699	-1.666280	4.584251	0.803911	-1.083420	5.477839	0.564443	-1.408210	3.330699	0.199546	-0.699719	0.348421	-3.879000	-4.660089	-12.932499	3.465520	-5.817860	2.809280	1.426960	-2.786829	3.465490	-3.879000	-0.000000	0.000000	-90.009674	2.772830	32.054432	24.258152	-35.436054	-7.855728	0.000000	0.000000	-26.366299	29.136187	17.594934	9.564502	-7.125019	0.000000	0.000000	1.153848	49.930275	0.140254	-3.879000	-0.000000	0.000000	86.721268	-1.846745	34.216751	-24.698271	35.893993	-8.112344	0.000000	0.000000	-17.006294	-28.639544	16.417788	-8.774536	7.125019	0.000000	0.000000	-0.561756	-11.422009	-0.439402
	9.460330	17.847500	-0.536502	0.441953	-3.720439	-3.156360	0.000000	0.000000	0.000000	-23.826155	-3.642561	0.557604	1.059516	6.544546	18.372860	0.336469	9.915263	-18.663891	0.001086	0.212661	0.584301	0.000000	0.000000	0.000000	22.636488	7.553129	0.354273	-1.037149	-6.477253	18.175617	-0.544248	-3.907893	-15.910939	-0.065134	-1.646637	4.530060	0.295409	-1.093870	5.942210	0.421339	-1.441110	3.222500	0.350510	-0.721944	-0.012160	-4.057169	-4.394769	-12.505800	3.809080	-5.467420	2.477560	1.609020	-2.606190	3.274560	-4.057170	0.000000	0.000000	-89.854149	2.914892	33.078564	25.361103	-36.570801	-8.504129	0.000000	0.000000	-26.913197	28.965975	17.149658	9.270054	-7.125019	0.000000	0.000000	1.049727	49.405228	0.114040	-4.057170	0.000000	0.000000	86.597237	-2.078297	35.093311	-25.483000	36.693596	-8.576863	0.000000	0.000000	-17.319597	-28.778719	16.206804	-8.715846	7.125019	0.000000	0.000000	-0.676553	-11.634442	-0.526253
